<svg width="1676" height="348" viewBox="0 0 1676 348" fill="none" xmlns="http://www.w3.org/2000/svg">
<path d="M206.15 1.19998C226.55 1.19998 249.95 8.99999 249.95 33C249.95 55.8 237.35 85.8 231.95 107.4L168.95 77.4L174.95 55.8H113.75L74.75 205.2H135.95L141.95 179.4L222.95 141C209.75 189 209.15 260.4 144.35 260.4H42.35C20.15 260.4 0.350001 252 0.350001 226.2C0.350001 203.4 38.75 69.6 48.35 38.4C54.35 10.8 78.35 1.19998 104.15 1.19998H206.15ZM441.781 1.19998C462.781 1.19998 486.181 8.99999 486.181 33C486.181 53.4 427.381 274.2 417.781 309.6L363.181 254.4C334.981 257.4 304.381 261 274.381 261C253.981 261 230.581 254.4 230.581 230.4C230.581 199.8 245.581 164.4 253.981 134.4C262.981 99.6 291.181 97.2 321.781 97.2L280.381 45C292.981 14.4 301.981 1.19998 339.181 1.19998H441.781ZM411.781 55.2H348.781L337.381 97.2H400.981L411.781 55.2ZM387.181 149.4H319.981L304.981 204H372.781L387.181 149.4ZM681.917 0.599991C702.317 0.599991 726.317 6.59999 726.317 31.8C726.317 48 716.717 66.6 713.117 83.4L633.917 114L648.917 58.2H598.517L544.517 260.4H476.717L529.517 48.6L491.717 1.19998H614.117L612.917 4.79999C634.517 3.59999 658.517 0.599991 681.917 0.599991ZM903.5 1.19998C924.5 1.19998 947.9 8.99999 947.9 33C947.9 53.4 889.1 274.2 879.5 309.6L824.9 254.4C796.7 257.4 766.1 261 736.1 261C715.7 261 692.3 254.4 692.3 230.4C692.3 199.8 707.3 164.4 715.7 134.4C724.7 99.6 752.9 97.2 783.5 97.2L742.1 45C754.7 14.4 763.7 1.19998 800.9 1.19998H903.5ZM873.5 55.2H810.5L799.1 97.2H862.7L873.5 55.2ZM848.9 149.4H781.7L766.7 204H834.5L848.9 149.4ZM1150.46 0.599991C1172.06 0.599991 1193.66 6.59999 1193.66 31.8C1193.66 53.4 1142.06 228 1134.26 260.4H1062.26L1116.86 57H1050.26L996.861 260.4H929.061L983.061 42.6L949.461 1.19998H1065.26V5.39998C1092.86 3.59999 1121.66 0.599991 1150.46 0.599991ZM1370.09 5.39998L1371.29 1.19998H1442.09L1359.29 311.4C1353.89 334.8 1323.89 347.4 1302.29 347.4H1151.09L1207.49 292.8H1292.69L1301.09 260.4C1262.69 260.4 1181.09 268.8 1181.09 208.8C1181.09 168.6 1207.49 97.2 1218.29 58.2C1229.09 21 1268.69 0.599991 1304.69 0.599991C1326.89 0.599991 1348.49 3.59999 1370.09 5.39998ZM1316.09 205.2L1356.29 57C1343.09 55.8 1328.09 55.2 1314.89 55.2C1303.49 55.2 1289.09 58.2 1285.49 72C1274.09 114 1263.89 158.4 1251.29 201.6C1253.09 205.2 1263.89 205.2 1266.89 205.2H1316.09ZM1630.72 1.19998C1651.72 1.19998 1675.12 8.99999 1675.12 33C1675.12 52.8 1633.12 195 1625.92 223.2C1618.12 250.2 1595.32 260.4 1568.92 260.4H1460.92C1439.92 260.4 1418.32 253.8 1418.32 229.8C1418.32 204 1457.32 72 1466.32 38.4C1472.92 10.8 1496.32 1.19998 1522.12 1.19998H1630.72ZM1598.32 55.8H1532.32L1493.32 205.2H1559.32L1598.32 55.8Z" fill="white"/>
</svg>
